<svg width="22" height="22" viewBox="0 0 22 22" fill="none" xmlns="http://www.w3.org/2000/svg">
<path d="M10.9473 0C12.6633 0 14.2967 0.400237 15.7614 1.11415C15.9915 1.21933 16.2225 1.34498 16.4517 1.47157L15.447 2.37443L13.941 0.799543L11.3451 3.11068L9.81713 1.45016L5.04426 5.75783L8.10029 9.14122L6.90684 10.1911L9.92254 13.5745L8.72909 14.6245L13.0409 19.4366L15.5937 17.0827L17.8129 19.6051C17.3729 19.9411 16.8916 20.278 16.3692 20.5722C14.7191 21.51 12.8594 22.0017 10.9684 22C4.91868 21.9991 6.75211e-05 17.0613 6.75211e-05 10.9907C-0.0210149 4.95921 4.8976 0 10.9473 0ZM8.93717 10.3187L11.5541 7.96471L13.8989 10.5914L11.2819 12.9453L8.93717 10.3187ZM10.8007 14.8572L13.3966 12.4837L15.7614 15.1094L13.1445 17.4634L10.8007 14.8572ZM7.07642 5.84346L9.69247 3.48951L12.0363 6.11618L9.42023 8.4692L7.07642 5.84346ZM11.8685 4.58225L13.8154 2.81748L15.5745 4.7712L13.6275 6.55737L11.8685 4.58225ZM15.3444 12.6717L17.2904 10.9069L19.0485 12.8811L17.1016 14.6477L15.3444 12.6717ZM17.0603 16.6433L19.0072 14.8776L20.7644 16.8323L18.8184 18.6175L17.0603 16.6433ZM17.8559 7.56541L19.153 6.3889L20.3253 7.69199L19.0274 8.8685L17.8559 7.56541ZM16.1813 3.67846L17.4792 2.48147L18.6525 3.80504L17.3527 4.98155L16.1813 3.67846ZM19.5086 11.4533L20.8066 10.2768L22 11.5799L20.6819 12.7564L19.5086 11.4533ZM13.6697 8.53249L15.6166 6.76773L17.3747 8.72144L15.4278 10.4871L13.6697 8.53249Z" fill="#2242CA"/>
</svg>
